<?xml version="1.0" encoding="UTF-8" standalone="no"?>
<!-- Created with Inkscape (http://www.inkscape.org/) -->

<svg
   width="133"
   height="48"
   viewBox="0 0 35.189603 12.7"
   version="1.1"
   id="svg5"
   xmlns="http://www.w3.org/2000/svg"
   xmlns:svg="http://www.w3.org/2000/svg">
  <defs
     id="defs2" />
  <g
     id="layer1">
    <g
       aria-label="kogswell"
       id="text2168"
       style="font-size:10.1424px;font-family:Supermercado;-inkscape-font-specification:Supermercado;letter-spacing:-0.575469px;word-spacing:0px;stroke:#000000;stroke-width:0.330729">
      <g
         id="path952">
        <path
           style="color:#000000;-inkscape-font-specification:Supermercado;fill:#000000;stroke:none;-inkscape-stroke:none"
           d="m 2.795059,4.8007583 q 0.8815172,0.3565688 0.8815172,1.3123711 v 1.1885625 q 0,0.2426648 -0.1238086,0.3615211 Q 3.2160082,7.9900676 2.8594395,7.8315926 2.4979184,7.67807 2.4979184,7.3016919 V 6.1279864 q 0,-0.2476172 -0.1238086,-0.3714257 Q 2.1562067,5.5386575 1.9184942,5.5386575 H 1.3440223 v 1.7630344 q 0,0.2377125 -0.1287609,0.3615211 -0.2129508,0.2179031 -0.39618753,0.2179031 -0.18323671,0 -0.29218827,-0.049524 Q 0.41793404,7.7870215 0.33869654,7.7127364 0.16536451,7.5443567 0.16536451,7.3016919 V 0.75964592 q 0,-0.24266484 0.12876093,-0.37637812 0.20799844,-0.21790312 0.46552031,-0.21790312 0.24761715,0 0.36647345,0.12876093 0.2179031,0.22285547 0.2179031,0.46552031 V 4.6472357 H 1.700591 L 2.6316316,2.7257263 q 0.069333,-0.158475 0.2179032,-0.2426648 0.1485703,-0.089142 0.3020929,-0.089142 0.1535227,0 0.2921883,0.074285 0.1386656,0.069333 0.2179031,0.2129508 0.08419,0.1436179 0.08419,0.3020929 0,0.1535227 -0.069333,0.2773313 z"
           id="path971" />
        <path
           style="color:#000000;-inkscape-font-specification:Supermercado;fill:#000000;stroke:none;-inkscape-stroke:none"
           d="M 0.75976562,0 C 0.54204397,0 0.3377685,0.10046242 0.17578125,0.26953125 0.05527111,0.3946764 0,0.56874111 0,0.75976562 V 7.3007812 c 0,0.2011489 0.07862341,0.3913324 0.22265625,0.53125 h 0.001953 l 0.001953,0.00195 c 0.0677215,0.063489 0.147916,0.1119377 0.23632813,0.1484375 8.5349e-4,3.523e-4 0.001098,0.0016 0.001953,0.00195 0.10316394,0.04567 0.21875447,0.0625 0.35351563,0.0625 0.18629652,0 0.35422772,-0.1054693 0.51171872,-0.265625 C 1.4531082,7.6621038 1.5097656,7.4884439 1.5097656,7.3007812 V 5.703125 h 0.4082031 c 0.1079469,0 0.2158353,0.045913 0.3398438,0.1699219 0.043562,0.043562 0.074219,0.1183421 0.074219,0.2558593 v 1.171875 c 0,0.3028658 0.1768278,0.5598004 0.4609375,0.6816407 C 3.0868935,8.1130551 3.412947,8.028771 3.6679688,7.78125 3.7901145,7.6631107 3.8417969,7.4900003 3.8417969,7.3007812 v -1.1875 c 0,-0.6173552 -0.3172336,-1.0713364 -0.8339844,-1.3496093 l 0.8125,-1.421875 c 0.060459,-0.1079625 0.091797,-0.232133 0.091797,-0.359375 0,-0.133485 -0.037353,-0.263209 -0.1054688,-0.3808594 l -0.00195,-0.00195 C 3.7383044,2.4803965 3.6409588,2.3829866 3.5214844,2.3222656 3.4066486,2.2607466 3.2813637,2.2285156 3.1523438,2.2285156 c -0.1329284,0 -0.2652078,0.040413 -0.3847657,0.1113282 -8.217e-4,4.656e-4 -0.00113,0.00148 -0.00195,0.00195 C 2.6386333,2.4144617 2.5393856,2.5254894 2.4804688,2.6601563 L 1.5976562,4.4824219 H 1.5097656 V 0.75976562 c 0,-0.20983189 -0.099477,-0.40885927 -0.2636719,-0.578125 C 1.1280434,0.05471003 0.95282596,0 0.75976562,0 Z m 0,0.33007813 c 0.13641479,0 0.20372434,0.0323876 0.24414058,0.0761719 l 0.00195,0.001953 0.00195,0.001953 c 0.124293,0.12711783 0.1699219,0.23732978 0.1699219,0.34960937 V 4.8125 H 1.8046875 L 2.78125,2.7949219 l 0.00195,-0.00195 C 2.81635,2.7172048 2.8617149,2.6665777 2.9316406,2.6269531 L 2.9335938,2.625 h 0.00195 c 0.077499,-0.046499 0.1464545,-0.066406 0.2167969,-0.066406 0.075677,0 0.142839,0.01716 0.2128906,0.054687 l 0.00195,0.00195 h 0.00195 c 0.062863,0.031431 0.1098853,0.076609 0.1484375,0.1464844 v 0.00195 l 0.00195,0.00195 c 0.042707,0.072852 0.060547,0.1404303 0.060547,0.2167969 0,0.077455 -0.01489,0.1401502 -0.046875,0.1972656 l -0.9765625,1.703125 0.1757813,0.070312 c 0.5400626,0.2184523 0.7792969,0.5737928 0.7792969,1.1601562 v 1.1875 c 0,0.1336532 -0.032238,0.2018863 -0.074219,0.2421875 v 0.00195 C 3.2435096,7.7332066 3.1072809,7.760354 2.9257813,7.6796875 h -0.00195 C 2.7275654,7.5963431 2.6640625,7.4987541 2.6640625,7.3007812 v -1.171875 c 0,-0.1926386 -0.052312,-0.3687186 -0.1738281,-0.4902343 C 2.3237057,5.4721432 2.1269716,5.3730469 1.9179687,5.3730469 H 1.1777344 v 1.9277343 c 0,0.1286175 -0.028446,0.1982505 -0.076172,0.2441407 h -0.00195 l -0.00195,0.00195 C 0.97226004,7.6751874 0.87496726,7.7148438 0.81835938,7.7148437 c -0.10725983,0 -0.18181471,-0.014639 -0.22265626,-0.033203 l -0.003906,-0.00195 -0.001953,-0.00195 C 0.53492517,7.6552679 0.49002339,7.6279151 0.453125,7.59375 l -0.001953,-0.00195 C 0.36560892,7.5078732 0.33007813,7.4222002 0.33007813,7.3007812 V 0.75976562 c 0,-0.13252828 0.0328134,-0.2085797 0.0839844,-0.26171874 C 0.52919249,0.3774345 0.63472577,0.33007812 0.75976562,0.33007813 Z"
           id="path973" />
      </g>
      <g
         id="path954">
        <path
           style="color:#000000;-inkscape-font-specification:Supermercado;fill:#000000;stroke:none;-inkscape-stroke:none"
           d="m 4.656143,3.859813 q 0,-0.6685664 0.4556156,-1.0598015 0.475425,-0.3961875 1.3074187,-0.3961875 0.822089,0 1.297514,0.3961875 0.460568,0.3961875 0.460568,1.0697062 v 2.5603617 q 0,1.0350398 -1.0102781,1.3519898 -0.3268547,0.099047 -0.7478039,0.099047 -0.4159969,0 -0.7428516,-0.099047 Q 5.3494711,7.67807 5.1216633,7.4849286 4.656143,7.0986458 4.656143,6.4152224 Z m 2.3474108,0.024762 q 0,-0.2476172 -0.1238085,-0.3714258 -0.2179032,-0.2179031 -0.460568,-0.2179031 -0.2476172,0 -0.3763781,0.1287609 -0.2129508,0.2129508 -0.2129508,0.460568 v 2.5752187 q 0,0.2525695 0.1683797,0.3912351 0.1683797,0.1337133 0.4159969,0.1337133 0.2525695,0 0.4209492,-0.1337133 Q 7.0035538,6.712363 7.0035538,6.4597935 Z"
           id="path977" />
        <path
           style="color:#000000;-inkscape-font-specification:Supermercado;fill:#000000;stroke:none;-inkscape-stroke:none"
           d="m 6.4199219,2.2382813 c -0.5809102,0 -1.060668,0.1410514 -1.4140625,0.4355468 h -0.00195 C 4.6648419,2.9649812 4.4902344,3.3761003 4.4902344,3.859375 v 2.5566406 c 0,0.4931617 0.1781631,0.9071876 0.5253906,1.1953125 0.1704604,0.1445208 0.3758178,0.2531899 0.6113281,0.328125 h 0.00195 c 0.2365372,0.071678 0.5005605,0.1074219 0.7910157,0.1074219 0.2936023,0 0.5581629,-0.035677 0.7949218,-0.1074219 h 0.00195 C 7.5780833,7.8261084 7.8640365,7.6425152 8.0566406,7.3847656 8.2492447,7.127016 8.3417969,6.8016018 8.3417969,6.4296875 V 3.8691406 c 0,-0.4867053 -0.1754124,-0.9009763 -0.5175782,-1.1953125 h -0.00195 C 7.4693049,2.3796942 6.9945452,2.2382812 6.4199219,2.2382813 Z m 0,0.3300781 c 0.5207106,0 0.9086116,0.1259424 1.1894531,0.359375 4.226e-4,3.513e-4 0.00153,-3.518e-4 0.00195,0 0.2705429,0.2336541 0.4003907,0.5311154 0.4003907,0.9414062 v 2.5605469 c 0,0.3181115 -0.074595,0.5648993 -0.2187501,0.7578125 C 7.6492975,7.379766 7.4296971,7.5250938 7.1191406,7.6230469 6.9200938,7.6833642 6.6875846,7.7148438 6.4199219,7.7148437 6.1557151,7.7148438 5.9238781,7.6834314 5.7246094,7.6230469 5.5255871,7.5593798 5.3611747,7.4718468 5.2285156,7.359375 v -0.00195 h -0.00195 C 4.9530969,7.1305036 4.8222656,6.8340843 4.8222656,6.4160156 V 3.859375 c 0,-0.4071156 0.1274861,-0.7014007 0.3945313,-0.9316406 4.18e-4,-3.484e-4 0.00153,3.479e-4 0.00195,0 0.2804205,-0.2330793 0.6735458,-0.359375 1.2011719,-0.359375 z m 0,0.5605469 c -0.1937411,0 -0.3708225,0.054416 -0.4941407,0.1777343 -0.1646279,0.164628 -0.2617187,0.3656426 -0.2617187,0.578125 v 2.5742188 c 0,0.2051271 0.078231,0.3957673 0.2285156,0.5195312 l 0.00195,0.00195 c 0.1431679,0.1136921 0.3246877,0.1699219 0.5195313,0.1699219 0.1975614,0 0.3796514,-0.055739 0.5234375,-0.1699219 h 0.00195 v -0.00195 C 7.0897377,6.8547516 7.1679687,6.6641115 7.1679687,6.4589844 V 3.8847656 c 0,-0.1926386 -0.050359,-0.3667655 -0.171875,-0.4882812 C 6.8291221,3.2295128 6.6311951,3.1289063 6.4199219,3.1289063 Z m 0,0.3320312 c 0.1122795,0 0.2201843,0.046356 0.34375,0.1699219 0.043562,0.043562 0.074219,0.116389 0.074219,0.2539062 v 2.5742188 c 0,0.1304549 -0.032625,0.2009656 -0.1054687,0.2617187 -4.511e-4,3.582e-4 -0.0015,-3.563e-4 -0.00195,0 -0.080464,0.063406 -0.1779865,0.099609 -0.3164062,0.099609 -0.1345447,0 -0.2294982,-0.035737 -0.3105469,-0.099609 h -0.00195 C 6.0287186,6.6599502 5.9960937,6.5894393 5.9960937,6.4589844 V 3.8847656 c 0,-0.1176735 0.044756,-0.2244438 0.1640625,-0.34375 0.048363,-0.048363 0.1233508,-0.080078 0.2597657,-0.080078 z"
           id="path979" />
      </g>
      <g
         id="path956">
        <path
           style="color:#000000;-inkscape-font-specification:Supermercado;fill:#000000;stroke:none;-inkscape-stroke:none"
           d="m 12.668038,8.6635864 q 0,0.6091382 -0.430854,1.0350398 -0.440759,0.4308538 -1.039992,0.4308538 h -0.876565 q -0.188189,0 -0.3219025,-0.128761 -0.1287609,-0.1287608 -0.1287609,-0.3169498 0,-0.1881891 0.1287609,-0.3219024 0.1337135,-0.1287609 0.3219025,-0.1287609 h 0.584376 q 0.247618,0 0.371426,-0.1238086 Q 11.48938,8.8963465 11.48938,8.6536817 V 7.5790231 q 0,-0.094094 -0.05448,-0.1238086 -0.04952,-0.034666 -0.09905,-0.034666 -0.04952,0 -0.08914,0.044571 l -0.08419,0.079237 q -0.336759,0.3367594 -0.772565,0.3367594 -0.5299011,0 -0.8864699,-0.4358063 Q 9.1469214,7.0194083 9.1469214,6.4152224 V 3.9687646 q 0,-0.6041859 0.4308539,-1.0350398 0.4308537,-0.4308539 1.0350397,-0.4308539 h 1.460941 q 0.391236,0 0.549711,0.3615211 0.04457,0.1089515 0.04457,0.2327601 z M 10.320627,6.4003653 q 0,0.2476172 0.123808,0.3714258 0.217904,0.2179031 0.396188,0.2179031 0.183237,0 0.287236,-0.034666 0.103999,-0.039619 0.188189,-0.1089515 Q 11.48938,6.6975059 11.48938,6.4597935 V 3.3942927 h -0.584377 q -0.242664,0 -0.371425,0.128761 -0.212951,0.2129507 -0.212951,0.4605679 z"
           id="path983" />
        <path
           style="color:#000000;-inkscape-font-specification:Supermercado;fill:#000000;stroke:none;-inkscape-stroke:none"
           d="m 10.613281,2.3378906 c -0.442098,0 -0.8377795,0.1639515 -1.1523435,0.4785157 C 9.1463733,3.1309704 8.9824219,3.5266519 8.9824219,3.96875 v 2.4472656 c 0,0.4353205 0.1321153,0.8213202 0.3945312,1.1347656 0.2630042,0.3206551 0.6156902,0.4960938 1.0136719,0.4960938 0.331631,0 0.635654,-0.1352355 0.884766,-0.3828125 l 0.04883,-0.044922 v 1.0351563 c 0,0.1134044 -0.0443,0.2181312 -0.164063,0.3378906 -0.04356,0.043562 -0.118341,0.076172 -0.255859,0.076172 h -0.583984 c -0.163174,0 -0.318484,0.061101 -0.4355474,0.1738281 l -0.00391,0.00195 -0.00195,0.00391 C 9.7661791,9.3651097 9.7050781,9.5204198 9.7050781,9.6835938 c 0,0.1631738 0.061458,0.3192702 0.1757813,0.4335942 l 0.00195,0.002 h 0.00195 c 0.1170634,0.112727 0.2723734,0.175781 0.4355474,0.175781 h 0.876953 c 0.439121,0 0.835623,-0.165094 1.15625,-0.4785157 0.315267,-0.3116436 0.480468,-0.7072637 0.480468,-1.1523438 V 3.0976563 c 0,-0.1023823 -0.01862,-0.2019712 -0.05664,-0.2949219 l -0.002,-0.00195 v -0.00195 C 12.649652,2.5119868 12.385977,2.3378906 12.074219,2.3378906 Z m 0,0.3300782 h 1.460938 c 0.209173,0 0.311096,0.070019 0.396484,0.2636718 0.02047,0.051279 0.03125,0.104714 0.03125,0.1660157 v 5.5664062 c 0,0.3671034 -0.121655,0.659791 -0.380859,0.9160156 -0.267051,0.2610498 -0.563973,0.3847657 -0.923828,0.3847657 h -0.876953 c -0.08675,0 -0.144617,-0.024544 -0.205079,-0.082031 l -0.002,-0.00195 c -0.05588,-0.056627 -0.07813,-0.1105594 -0.07813,-0.1972656 0,-0.086746 0.02259,-0.1446169 0.08008,-0.2050782 0.06046,-0.057488 0.118333,-0.080078 0.205079,-0.080078 h 0.583984 c 0.192639,0 0.366766,-0.050359 0.488281,-0.171875 0.164175,-0.1641747 0.261719,-0.3621173 0.261719,-0.5722656 V 7.578125 c 0,-0.092736 -0.04236,-0.2053719 -0.138672,-0.2617188 -0.0522,-0.033776 -0.113078,-0.060547 -0.179687,-0.060547 -0.08263,0 -0.16375,0.044327 -0.212891,0.099609 l 0.0098,-0.011719 -0.08594,0.082031 -0.002,0.00195 c -0.199286,0.1992857 -0.406354,0.2871093 -0.654297,0.2871093 -0.307934,0 -0.5474761,-0.115535 -0.7597656,-0.375 C 9.4178575,7.0854214 9.3125,6.7862756 9.3125,6.4160156 V 3.96875 c 0,-0.3634823 0.1229054,-0.6580616 0.3828125,-0.9179687 0.259907,-0.2599071 0.5544865,-0.3828125 0.9179685,-0.3828125 z m 0.291016,0.5605468 c -0.191024,0 -0.365713,0.055166 -0.488281,0.1777344 -0.164628,0.1646279 -0.261719,0.3656425 -0.261719,0.578125 v 2.4160156 c 0,0.1926386 0.05231,0.3667654 0.173828,0.4882813 0.161214,0.1612135 0.325492,0.265625 0.511719,0.265625 0.132586,0 0.242871,-0.010645 0.339844,-0.042969 h 0.0039 l 0.0039,-0.00195 c 0.08545,-0.032552 0.164387,-0.077129 0.234375,-0.1347656 v -0.00195 l 0.002,-0.00195 C 11.57247,6.8432956 11.654297,6.6576519 11.654297,6.4589844 V 3.2285156 Z m 0,0.3320313 h 0.419922 v 2.8984375 c 0,0.1172171 -0.03244,0.1896925 -0.113281,0.2597656 -4.35e-4,3.582e-4 -0.0015,-3.566e-4 -0.002,0 -5.11e-4,4.419e-4 5.16e-4,0.00151 0,0.00195 -0.04103,0.033433 -0.08739,0.058298 -0.138671,0.078125 -0.04257,0.013473 -0.121478,0.025391 -0.230469,0.025391 -0.05148,0 -0.149973,-0.040598 -0.279297,-0.1699218 -0.04356,-0.043562 -0.07422,-0.1163889 -0.07422,-0.2539063 V 3.984375 c 0,-0.1176735 0.04476,-0.2244439 0.164063,-0.34375 0.04911,-0.049113 0.121378,-0.080078 0.253906,-0.080078 z"
           id="path985" />
      </g>
      <g
         id="path958">
        <path
           style="color:#000000;-inkscape-font-specification:Supermercado;fill:#000000;stroke:none;-inkscape-stroke:none"
           d="m 14.286457,7.7820692 q -0.183236,0 -0.31695,-0.1287609 -0.133713,-0.128761 -0.133713,-0.2674266 0,-0.1386656 0.03467,-0.2179031 0.03962,-0.08419 0.104,-0.1485703 0.133713,-0.1337133 0.311997,-0.1337133 h 1.094468 q 0.302093,0 0.48533,-0.1683797 0.183237,-0.173332 0.183237,-0.4259015 0,-0.2525696 -0.138666,-0.4060922 -0.13867,-0.158475 -0.341716,-0.2228555 L 14.677692,5.4148489 Q 14.217125,5.2761833 13.944746,4.8998052 13.667414,4.5184747 13.667414,4.0925732 q 0,-0.4259016 0.123809,-0.7032328 0.128761,-0.2773313 0.341712,-0.475425 0.440758,-0.4110445 1.089515,-0.4110445 h 1.208372 q 0.188189,0 0.311998,0.1337133 0.123808,0.1287609 0.123808,0.31695 0,0.188189 -0.123808,0.3169499 -0.123809,0.1238086 -0.311998,0.1238086 h -1.114277 q -0.25257,0 -0.396188,0.1485703 -0.138665,0.1485704 -0.138665,0.3516164 0,0.31695 0.351616,0.475425 l 0.970659,0.2822836 q 0.782471,0.2624742 1.039993,0.9904688 0.08419,0.2476171 0.08419,0.5695195 0,0.3219023 -0.133713,0.6140906 -0.128761,0.2921883 -0.346664,0.505139 -0.460568,0.4506633 -1.084563,0.4506633 z"
           id="path989" />
        <path
           style="color:#000000;-inkscape-font-specification:Supermercado;fill:#000000;stroke:none;-inkscape-stroke:none"
           d="m 15.222656,2.3378906 c -0.467428,0 -0.879691,0.1534483 -1.203125,0.4550782 -0.157975,0.1469534 -0.284735,0.3245146 -0.378906,0.5273437 v 0.00195 c -0.09539,0.2136608 -0.138672,0.4695734 -0.138672,0.7695313 0,0.3198272 0.106482,0.6263933 0.308594,0.9042968 0.201884,0.2789666 0.482337,0.4744156 0.820312,0.5761719 v 0.00195 l 0.888672,0.2460938 c 0.108439,0.034383 0.194164,0.089928 0.267578,0.1738281 v 0.00195 h 0.002 c 0.06221,0.068874 0.0957,0.1568052 0.0957,0.2949219 0,0.1274026 -0.03938,0.2173414 -0.13086,0.3046875 -4.18e-4,3.842e-4 -0.0015,-3.825e-4 -0.002,0 -4.96e-4,4.721e-4 4.99e-4,0.00148 0,0.00195 -0.08858,0.080625 -0.201494,0.1230469 -0.371094,0.1230469 h -1.09375 c -0.160197,0 -0.314561,0.066514 -0.429687,0.1816406 -0.05641,0.056412 -0.102527,0.1226561 -0.136719,0.1953125 v 0.00195 l -0.002,0.00195 c -0.03731,0.085279 -0.04883,0.1789308 -0.04883,0.2851562 0,0.1455964 0.07504,0.2783519 0.185547,0.3847657 0.116328,0.1120193 0.270749,0.1757812 0.43164,0.1757812 h 1.376954 c 0.455806,0 0.865491,-0.1714961 1.199218,-0.4980469 0.160017,-0.1563797 0.287218,-0.3430229 0.38086,-0.5546875 0.0987,-0.2156862 0.148437,-0.4441427 0.148437,-0.6816406 0,-0.2290178 -0.02864,-0.4372923 -0.0918,-0.6230469 v -0.00195 C 17.113623,5.0588093 16.716415,4.6839969 16.15625,4.4960937 l -0.002,-0.00195 -0.955078,-0.2773437 C 15.005608,4.1287414 14.947266,4.043681 14.947266,3.8945313 c 0,-0.09772 0.02695,-0.1667052 0.09375,-0.2382813 0.06184,-0.063165 0.140586,-0.095703 0.27539,-0.095703 h 1.115235 c 0.161723,0 0.315572,-0.061667 0.427734,-0.1738281 h 0.002 v -0.00195 C 16.971764,3.2699115 17.03125,3.1148482 17.03125,2.953125 c 0,-0.1608402 -0.05869,-0.3150255 -0.167969,-0.4296875 -0.110917,-0.1197901 -0.267016,-0.1855469 -0.43164,-0.1855469 z m 0,0.3300782 h 1.208985 c 0.08629,0 0.135291,0.021584 0.189453,0.080078 l 0.002,0.00195 v 0.00195 c 0.05464,0.056827 0.07813,0.1119766 0.07813,0.2011719 0,0.088161 -0.02289,0.1450114 -0.07617,0.2011719 -4.66e-4,4.658e-4 -0.0015,-4.612e-4 -0.002,0 -4.53e-4,4.759e-4 4.58e-4,0.00148 0,0.00195 -0.05228,0.05154 -0.103298,0.072266 -0.191406,0.072266 h -1.115235 c -0.200804,0 -0.386212,0.065343 -0.515625,0.1992188 v 0.00195 h -0.002 c -0.118082,0.1265176 -0.18164,0.2918361 -0.18164,0.4648438 0,0.27245 0.175204,0.5043339 0.447265,0.6269531 l 0.01172,0.00391 0.974609,0.2832031 c 0.483129,0.1620622 0.781296,0.4470947 0.9375,0.8886719 0.04875,0.1440685 0.07422,0.3161802 0.07422,0.515625 0,0.1917048 -0.03956,0.3710241 -0.119141,0.5449219 v 0.00195 c -0.07794,0.1768581 -0.180672,0.3262021 -0.310547,0.453125 -0.280362,0.274333 -0.592563,0.4042969 -0.968749,0.4042969 h -1.376954 c -0.08342,0 -0.141168,-0.022369 -0.203125,-0.082031 -0.06778,-0.065267 -0.08203,-0.1091465 -0.08203,-0.1484375 0,-0.07767 0.01066,-0.1294753 0.01953,-0.1503906 1.14e-4,-2.672e-4 -1.12e-4,-0.0017 0,-0.00195 0.0183,-0.03779 0.0419,-0.069247 0.07031,-0.097656 0.06316,-0.063157 0.117798,-0.085937 0.195312,-0.085937 h 1.09375 c 0.232119,10e-8 0.442161,-0.06805 0.597657,-0.2109375 v -0.00195 h 0.002 c 0.151288,-0.1431098 0.234375,-0.3385053 0.234375,-0.546875 0,-0.1977372 -0.05815,-0.3780452 -0.179688,-0.5136719 l -0.002,-0.00195 C 15.921996,5.6490579 15.780547,5.555084 15.619141,5.5039062 h -0.002 L 14.724609,5.2558594 h -0.002 C 14.447373,5.1726359 14.239086,5.0251533 14.078125,4.8027344 13.910462,4.5721978 13.832031,4.3398378 13.832031,4.0917969 c 0,-0.2671098 0.04007,-0.4768335 0.109375,-0.6328125 v -0.00195 c 0.07742,-0.1662744 0.179111,-0.3050598 0.304688,-0.421875 0.264242,-0.246429 0.578982,-0.3671875 0.976562,-0.3671875 z"
           id="path991" />
      </g>
      <g
         id="path960">
        <path
           style="color:#000000;-inkscape-font-specification:Supermercado;fill:#000000;stroke:none;-inkscape-stroke:none"
           d="m 22.917395,2.9981052 q 0,-0.2426648 0.123808,-0.3763781 0.212951,-0.2179031 0.470473,-0.2179031 0.247617,0 0.366473,0.1287609 0.212951,0.2179032 0.212951,0.4655203 v 3.4319742 q 0,0.6586617 -0.455616,1.0598015 -0.450663,0.3912352 -1.153896,0.3912352 -0.802279,0 -1.208371,-0.4952344 -0.128761,-0.1089515 -0.227808,0 -0.415997,0.4952344 -1.208372,0.4952344 -0.698281,0 -1.148944,-0.3961875 -0.46552,-0.4060922 -0.46552,-1.0697062 V 2.9981052 q 0,-0.2426648 0.123808,-0.3763781 0.212951,-0.2179031 0.470473,-0.2179031 0.247617,0 0.366473,0.1287609 0.212951,0.2179032 0.212951,0.4655203 v 3.4616883 q 0,0.2525695 0.16838,0.3912351 0.16838,0.1337133 0.411044,0.1337133 0.247618,0 0.42095,-0.128761 0.173332,-0.1337132 0.173332,-0.3961874 V 3.0030576 q 0,-0.2426649 0.123808,-0.3763781 0.212951,-0.2179032 0.470473,-0.2179032 0.247617,0 0.366473,0.1238086 0.212951,0.2228555 0.212951,0.4704727 v 3.4567359 q 0,0.2624742 0.16838,0.3961874 0.173332,0.128761 0.420949,0.128761 0.247617,0 0.415997,-0.1337133 0.16838,-0.1386656 0.16838,-0.3912351 z"
           id="path995" />
        <path
           style="color:#000000;-inkscape-font-specification:Supermercado;fill:#000000;stroke:none;-inkscape-stroke:none"
           d="m 18.816406,2.2382813 c -0.218322,0 -0.422634,0.098479 -0.58789,0.2675781 l -0.002,0.00195 -0.002,0.00195 c -0.11642,0.1257347 -0.167968,0.2983818 -0.167968,0.4882813 v 3.4179687 c 0,0.4810762 0.179465,0.8932988 0.523437,1.1933594 0.332058,0.2912781 0.761705,0.4375 1.257813,0.4375 0.55521,0 1.00599,-0.1869134 1.316406,-0.546875 0.0015,-0.00174 0.0044,-0.00215 0.0059,-0.00391 -0.0036,0.00156 -5.47e-4,10e-8 -0.0078,0 l -0.0078,-0.00586 c 0.0035,0.00427 0.01208,0.00163 0.01563,0.00586 0.0027,-0.00313 0.0091,-7.53e-4 0.01172,-0.00391 l -0.0039,0.00586 c 0.0044,-0.00479 -0.0046,-2.656e-4 -0.0059,0 0.304676,0.3616139 0.758985,0.5488281 1.320313,0.5488281 0.499488,0 0.929123,-0.1429033 1.261719,-0.4316406 v -0.00195 C 24.081576,7.3161914 24.255859,6.906924 24.255859,6.4296875 V 2.9980469 c 0,-0.2124824 -0.09591,-0.4124165 -0.259765,-0.5800781 -0.118033,-0.1256119 -0.292249,-0.1796875 -0.484375,-0.1796875 -0.218323,0 -0.422635,0.098479 -0.587891,0.2675781 l -0.002,0.00195 -0.002,0.00195 c -0.116421,0.1257347 -0.167969,0.2983818 -0.167969,0.4882813 v 3.4609375 c 0,0.1304548 -0.03262,0.2009657 -0.105469,0.2617187 -4.61e-4,3.665e-4 -0.0015,-3.644e-4 -0.002,0 -0.08105,0.063872 -0.176002,0.099609 -0.310547,0.099609 -0.13468,0 -0.235713,-0.033914 -0.320312,-0.095703 -0.06973,-0.05613 -0.105469,-0.1272334 -0.105469,-0.265625 V 3.0039063 c 0,-0.2124825 -0.09471,-0.4152501 -0.257812,-0.5859375 -0.118968,-0.1239254 -0.29369,-0.1738282 -0.486329,-0.1738282 -0.218322,0 -0.422634,0.098479 -0.58789,0.2675782 h -0.002 l -0.002,0.00195 c -0.116421,0.1257346 -0.167969,0.3003349 -0.167969,0.4902344 v 3.4550781 c 0,0.1385816 -0.03525,0.2084455 -0.109375,0.265625 -0.0846,0.06178 -0.183688,0.095703 -0.31836,0.095703 -0.130649,0 -0.225005,-0.035267 -0.30664,-0.099609 h -0.002 C 19.595125,6.6599501 19.5625,6.5894392 19.5625,6.4589844 V 2.9980469 c 0,-0.2124824 -0.09787,-0.4124165 -0.261719,-0.5800781 C 19.182749,2.2923569 19.008532,2.2382813 18.816406,2.2382813 Z m 0,0.3300781 c 0.136415,0 0.205678,0.032388 0.246094,0.076172 v 0.00195 l 0.002,0.00195 c 0.120083,0.1228756 0.166016,0.231936 0.166016,0.3496094 v 3.4609375 c 0,0.2051272 0.07823,0.3957674 0.228515,0.5195312 l 0.002,0.00195 c 0.14255,0.113201 0.323477,0.1699219 0.515625,0.1699219 0.193742,0 0.373718,-0.05379 0.519532,-0.1621094 l 0.002,-0.00195 C 20.655034,6.8652235 20.734375,6.670368 20.734375,6.4589844 V 3.0039063 c 0,-0.1315801 0.03076,-0.2092053 0.07813,-0.2617188 0.118678,-0.1214383 0.226523,-0.1679687 0.351562,-0.1679687 0.137518,0 0.208541,0.031113 0.248047,0.072266 0.120833,0.1264529 0.166016,0.2397484 0.166016,0.3574219 v 3.4550781 c 0,0.2103436 0.07695,0.4054321 0.230469,0.5273437 h 0.002 l 0.002,0.00195 c 0.145814,0.108319 0.327743,0.1621094 0.521484,0.1621094 0.194844,0 0.374411,-0.05623 0.517578,-0.1699219 h 0.002 v -0.00195 c 0.150285,-0.1237638 0.228515,-0.314404 0.228515,-0.5195312 V 2.9980469 c 0,-0.1315652 0.03077,-0.2072523 0.07813,-0.2597656 0.118679,-0.1214383 0.226523,-0.1699219 0.351563,-0.1699219 0.136414,0 0.203724,0.032388 0.24414,0.076172 l 0.002,0.00195 0.002,0.00195 c 0.120083,0.1228756 0.166015,0.231936 0.166015,0.3496094 v 3.4316406 c 0,0.4009782 -0.130339,0.6977842 -0.40039,0.9355469 -0.268074,0.2321313 -0.60555,0.3496093 -1.042969,0.3496093 -0.500827,0 -0.84516,-0.1447259 -1.082031,-0.4335937 l -0.0098,-0.011719 -0.0098,-0.00977 c -0.06128,-0.051848 -0.137823,-0.09375 -0.228515,-0.09375 -0.09069,0 -0.174276,0.049712 -0.228516,0.109375 l -0.0039,0.00195 -0.002,0.00195 c -0.244073,0.2905623 -0.58628,0.4355468 -1.080078,0.4355468 -0.434246,0 -0.772382,-0.117354 -1.041016,-0.3535156 V 7.359375 C 18.520154,7.1179799 18.388672,6.8197573 18.388672,6.4160156 V 2.9980469 c 0,-0.1315634 0.02882,-0.2072524 0.07617,-0.2597656 0.118678,-0.1214383 0.226522,-0.1699219 0.351562,-0.1699219 z"
           id="path997" />
      </g>
      <g
         id="path962">
        <path
           style="color:#000000;-inkscape-font-specification:Supermercado;fill:#000000;stroke:none;-inkscape-stroke:none"
           d="m 27.789504,6.885695 q 0.188189,0 0.31695,0.1337133 0.128761,0.1337133 0.128761,0.3219023 0,0.1832367 -0.128761,0.3119977 -0.128761,0.1287609 -0.31695,0.1287609 h -1.168753 q -0.604186,0 -1.03504,-0.4308539 Q 25.154857,6.9203614 25.154857,6.3161755 V 3.8845748 q 0,-0.6735188 0.455616,-1.0746586 0.475425,-0.4060922 1.307418,-0.4060922 0.822089,0 1.297514,0.4060922 0.460568,0.4060922 0.460568,1.0845632 v 1.3866563 q 0,0.2476171 -0.123808,0.3714257 -0.212951,0.2129508 -0.465521,0.2129508 h -1.758082 v 0.4407586 q 0,0.2525695 0.123809,0.3714258 0.217903,0.2079984 0.460568,0.2079984 z M 27.502268,3.8845748 q 0,-0.2476172 -0.123809,-0.3714258 -0.217903,-0.2179031 -0.460568,-0.2179031 -0.247617,0 -0.376378,0.1287609 -0.212951,0.2129508 -0.212951,0.460568 v 1.1142773 h 1.173706 z"
           id="path1001" />
        <path
           style="color:#000000;-inkscape-font-specification:Supermercado;fill:#000000;stroke:none;-inkscape-stroke:none"
           d="m 26.917969,2.2382813 c -0.581566,0 -1.06089,0.1436443 -1.414063,0.4453125 l -0.002,0.00195 c -0.338196,0.2977589 -0.511719,0.7129186 -0.511719,1.1992187 v 2.4316406 c 0,0.4420982 0.163952,0.8377796 0.478516,1.1523438 0.314564,0.3145642 0.710246,0.4785156 1.152344,0.4785156 h 1.167968 c 0.163174,0 0.319271,-0.063411 0.433594,-0.1777344 0.113574,-0.113574 0.177735,-0.2668426 0.177735,-0.4277343 0,-0.1631739 -0.06305,-0.3204372 -0.175782,-0.4375 C 28.110848,6.7861602 27.953687,6.7207031 27.789062,6.7207031 h -0.876953 c -0.114529,0 -0.222612,-0.044613 -0.345703,-0.1621094 -0.04032,-0.038712 -0.07227,-0.110594 -0.07227,-0.2519531 V 6.03125 h 1.591796 c 0.214855,0 0.418904,-0.096638 0.583985,-0.2617188 C 28.791437,5.6480154 28.841797,5.4738885 28.841797,5.28125 V 3.8945313 c 0,-0.4897318 -0.176267,-0.9080431 -0.517578,-1.2089844 l -0.002,-0.00195 C 27.969524,2.3822939 27.493256,2.2382812 26.917969,2.2382813 Z m 0,0.3300781 c 0.520049,0 0.906443,0.1277325 1.1875,0.3671875 4.22e-4,3.595e-4 0.0015,-3.601e-4 0.002,0 0.271419,0.2402408 0.402344,0.5451069 0.402344,0.9589844 V 5.28125 c 0,0.1375173 -0.03066,0.2103441 -0.07422,0.2539062 -0.118853,0.118853 -0.227705,0.1640626 -0.34961,0.1640625 h -1.921875 v 0.6074219 c 0,0.1953999 0.04907,0.3704716 0.173829,0.4902344 0.167446,0.1598351 0.365195,0.2539062 0.574218,0.2539062 h 0.876953 c 0.08629,0 0.141299,0.023837 0.199219,0.083984 0.05895,0.061221 0.08203,0.1192868 0.08203,0.2070313 0,0.083424 -0.02197,0.1372053 -0.08008,0.1953125 -0.05736,0.057357 -0.113427,0.080078 -0.201172,0.080078 h -1.167968 c -0.363483,0 -0.658062,-0.1229054 -0.917969,-0.3828125 C 25.443218,6.9744679 25.320312,6.6798885 25.320312,6.3164062 V 3.8847656 c 10e-7,-0.4107035 0.130501,-0.7123929 0.398438,-0.9492187 4.18e-4,-3.571e-4 0.0015,3.565e-4 0.002,0 0.280639,-0.2390941 0.670295,-0.3671875 1.197266,-0.3671875 z m 0,0.5605469 c -0.193741,0 -0.370823,0.054416 -0.494141,0.1777343 -0.164628,0.164628 -0.259765,0.3656426 -0.259766,0.578125 v 1.2792969 h 1.503907 V 3.8847656 C 27.667969,3.6921268 27.61761,3.518 27.496094,3.3964844 27.329122,3.2295128 27.129242,3.1289063 26.917969,3.1289063 Z m 0,0.3320312 c 0.112279,0 0.220184,0.046356 0.34375,0.1699219 0.04356,0.043562 0.07422,0.1163891 0.07422,0.2539062 V 4.8339844 H 26.494141 V 3.8847656 c 0,-0.1176735 0.04476,-0.2244438 0.164062,-0.34375 0.04836,-0.048363 0.123351,-0.080078 0.259766,-0.080078 z"
           id="path1003" />
      </g>
      <g
         id="path964">
        <path
           style="color:#000000;-inkscape-font-specification:Supermercado;fill:#000000;stroke:none;-inkscape-stroke:none"
           d="m 31.037243,6.3062708 q 0,0.2525695 0.123809,0.3714258 0.217903,0.2079984 0.460568,0.2079984 h 0.04952 q 0.183237,0 0.282284,0.099047 0.16838,0.1683797 0.16838,0.3070453 0,0.1386656 -0.03467,0.2228554 -0.03467,0.079237 -0.09409,0.1386657 -0.138666,0.1287609 -0.321903,0.1287609 H 31.32943 q -0.604186,0 -1.03504,-0.4308539 -0.430852,-0.430854 -0.430852,-1.0350399 V 0.74974123 q 0,-0.24761718 0.123809,-0.37142578 0.21295,-0.21295077 0.460568,-0.21295077 0.252569,0 0.376378,0.12380859 0.21295,0.21295078 0.21295,0.46056796 z"
           id="path1007" />
        <path
           style="color:#000000;-inkscape-font-specification:Supermercado;fill:#000000;stroke:none;-inkscape-stroke:none"
           d="M 30.447266,0 C 30.234783,0 30.035721,0.09709061 29.871094,0.26171875 29.749578,0.38323442 29.697266,0.55736123 29.697266,0.75 v 5.5664062 c 0,0.442098 0.165906,0.8377795 0.480468,1.1523438 0.314565,0.3145642 0.710246,0.4785156 1.152344,0.4785156 h 0.341797 c 0.160892,0 0.314535,-0.061321 0.433594,-0.171875 l 0.002,-0.00391 0.002,-0.00195 c 0.05423,-0.054233 0.09797,-0.1187534 0.128906,-0.1894531 h 0.002 v -0.00195 c 0.03529,-0.085685 0.04687,-0.1808839 0.04687,-0.2871094 0,-0.1593769 -0.08849,-0.2955258 -0.216797,-0.4238281 C 31.968228,6.7651027 31.823828,6.7207031 31.671875,6.7207031 h -0.05078 c -0.11453,0 -0.222613,-0.044613 -0.345703,-0.1621094 -0.04033,-0.038712 -0.07227,-0.110594 -0.07227,-0.2519531 V 0.75 c 0,-0.21248223 -0.09709,-0.41349701 -0.261719,-0.578125 C 30.819111,0.04958002 30.642665,0 30.447266,0 Z m 0,0.33007813 c 0.141358,0 0.216982,0.0333889 0.259765,0.0761719 0.119306,0.1193061 0.164063,0.22607632 0.164063,0.34375 v 5.5566406 c 0,0.1953999 0.05103,0.3704716 0.175781,0.4902344 0.167446,0.1598351 0.365195,0.2539063 0.574219,0.2539062 h 0.05078 c 0.09236,10e-8 0.134085,0.020803 0.164062,0.050781 0.0962,0.096204 0.121094,0.1639428 0.121094,0.1894531 0,0.078662 -0.0125,0.1335879 -0.02344,0.1601563 -0.01407,0.031406 -0.03073,0.056994 -0.05273,0.080078 -0.06583,0.061127 -0.12556,0.085937 -0.208984,0.085937 h -0.341797 c -0.363482,0 -0.658061,-0.1229054 -0.917969,-0.3828125 C 30.152203,6.9744679 30.029297,6.6798887 30.029297,6.3164062 V 0.75 c 0,-0.13751714 0.03066,-0.21034395 0.07422,-0.25390625 0.119305,-0.11930594 0.226075,-0.16601562 0.34375,-0.16601562 z"
           id="path1009" />
      </g>
      <g
         id="path966">
        <path
           style="color:#000000;-inkscape-font-specification:Supermercado;fill:#000000;stroke:none;-inkscape-stroke:none"
           d="m 33.819462,6.3062708 q 0,0.2525695 0.123809,0.3714258 0.217903,0.2079984 0.460568,0.2079984 h 0.04952 q 0.183237,0 0.282284,0.099047 0.16838,0.1683797 0.16838,0.3070453 0,0.1386656 -0.03467,0.2228554 -0.03467,0.079237 -0.09409,0.1386657 -0.138666,0.1287609 -0.321903,0.1287609 h -0.341711 q -0.604186,0 -1.03504,-0.4308539 -0.430852,-0.430854 -0.430852,-1.0350399 V 0.74974123 q 0,-0.24761718 0.123809,-0.37142578 0.21295,-0.21295077 0.460567,-0.21295077 0.25257,0 0.376379,0.12380859 0.21295,0.21295078 0.21295,0.46056796 z"
           id="path1013" />
        <path
           style="color:#000000;-inkscape-font-specification:Supermercado;fill:#000000;stroke:none;-inkscape-stroke:none"
           d="M 33.230469,0 C 33.017986,0 32.816971,0.0970907 32.652344,0.26171875 32.530828,0.38323442 32.480469,0.55736123 32.480469,0.75 v 5.5664062 c 0,0.442098 0.163953,0.8377795 0.478515,1.1523438 0.314565,0.3145642 0.710246,0.4785156 1.152344,0.4785156 h 0.341797 c 0.160892,0 0.316488,-0.061321 0.435547,-0.171875 l 0.002,-0.00391 0.002,-0.00195 c 0.05423,-0.054233 0.09797,-0.1187534 0.128906,-0.1894531 v -0.00195 c 0.03529,-0.085685 0.04883,-0.1808839 0.04883,-0.2871094 0,-0.1593769 -0.08849,-0.2955258 -0.216796,-0.4238281 C 34.751431,6.7651027 34.605078,6.7207031 34.453125,6.7207031 h -0.04883 c -0.114001,0 -0.223312,-0.045823 -0.345703,-0.1621094 -0.04033,-0.038712 -0.07422,-0.110594 -0.07422,-0.2519531 V 0.75 c 0,-0.21248223 -0.09709,-0.41349701 -0.261719,-0.578125 C 33.600361,0.04957986 33.425869,0 33.230469,0 Z m 0,0.33007813 c 0.141359,0 0.216982,0.033389 0.259765,0.0761719 0.119306,0.1193061 0.164063,0.22607632 0.164063,0.34375 v 5.5566406 c 0,0.1953999 0.04908,0.3704716 0.173828,0.4902344 0.167446,0.1598351 0.367148,0.2539062 0.576172,0.2539062 h 0.04883 c 0.09236,10e-8 0.136038,0.020803 0.166016,0.050781 0.0962,0.096204 0.11914,0.1639428 0.11914,0.1894531 0,0.078662 -0.01054,0.1335879 -0.02148,0.1601563 -0.01408,0.031439 -0.03266,0.056976 -0.05469,0.080078 -0.06583,0.061127 -0.12556,0.085937 -0.208984,0.085937 h -0.341797 c -0.363482,0 -0.658061,-0.1229054 -0.917969,-0.3828125 C 32.933453,6.9744679 32.810547,6.6798887 32.810547,6.3164062 V 0.75 c 0,-0.13751714 0.03261,-0.21034395 0.07617,-0.25390625 0.119305,-0.11930603 0.226076,-0.16601562 0.34375,-0.16601562 z"
           id="path1015" />
      </g>
    </g>
  </g>
</svg>

